<?xml version="1.0" encoding="UTF-8"?>
<svg version="1.1" xmlns="http://www.w3.org/2000/svg" width="262" height="198">
<path d="M0 0 C6.11501858 5.23243858 11.42728499 10.77582902 13.15234375 18.83203125 C10.18234375 19.82203125 10.18234375 19.82203125 7.15234375 20.83203125 C4.95091801 16.72270321 3.08644879 13.09664597 2.15234375 8.51953125 C1.44883493 4.89778749 1.44883493 4.89778749 -0.53515625 2.83203125 C-2.89697595 1.6121476 -2.89697595 1.6121476 -5.91015625 1.95703125 C-9.85011221 1.83195328 -11.50716446 1.24667796 -14.97265625 -0.41796875 C-48.51912992 -16.44421933 -92.15321871 -12.49367873 -126.43359375 -0.6171875 C-131.43237623 1.18848382 -136.34374932 3.01155001 -141.01953125 5.5625 C-145.33756825 7.50084534 -147.47120303 6.26569696 -151.84765625 4.83203125 C-151.84765625 4.17203125 -151.84765625 3.51203125 -151.84765625 2.83203125 C-109.60757383 -19.13480406 -41.17129537 -31.34440182 0 0 Z " fill="#24467E" transform="translate(215.84765625,72.16796875)"/>
<path d="M0 0 C4.14559093 -0.11727273 8.29074862 -0.18760933 12.4375 -0.25 C14.18450195 -0.30027344 14.18450195 -0.30027344 15.96679688 -0.3515625 C23.0298007 -0.43114564 29.00072765 -0.02679327 35 4 C40.40746966 10.62415033 40.66890619 16.74046269 40 25 C38.31284577 33.63994907 34.81506933 40.33677337 28 46 C21.82062153 49.70762708 15.65709792 51.13774915 8.48046875 51.09765625 C7.45888672 51.09443359 6.43730469 51.09121094 5.38476562 51.08789062 C4.32966797 51.07951172 3.27457031 51.07113281 2.1875 51.0625 C1.11306641 51.05798828 0.03863281 51.05347656 -1.06835938 51.04882812 C-3.71229683 51.03707729 -6.35611952 51.02064787 -9 51 C-8.75 49.125 -8.75 49.125 -8 47 C-7.34854004 46.69255859 -6.69708008 46.38511719 -6.02587891 46.06835938 C-3.77888704 45.16644882 -3.77888704 45.16644882 -3.11865234 42.72851562 C-2.94285645 41.79716797 -2.76706055 40.86582031 -2.5859375 39.90625 C-2.28042969 38.359375 -2.28042969 38.359375 -1.96875 36.78125 C-1.7728125 35.6984375 -1.576875 34.615625 -1.375 33.5 C-1.17132813 32.448125 -0.96765625 31.39625 -0.7578125 30.3125 C-0.35358262 28.21879652 0.04282405 26.12356651 0.43115234 24.02685547 C1.11453866 20.39053635 1.86629002 16.77028283 2.63378906 13.15087891 C3.16134676 10.05235671 3.13630944 7.13511714 3 4 C2.01 3.67 1.02 3.34 0 3 C0 2.01 0 1.02 0 0 Z M13 4 C10.09985394 17.62982591 7.29714444 31.25448532 5 45 C8.3752593 47.25017287 8.88679496 47.2367224 12.6875 46.5625 C19.23940024 45.06082359 23.72505525 41.54100096 27.34765625 35.90234375 C31.09000575 28.72615385 31.59320548 22.04602347 31 14 C29.4066772 9.30389068 27.36784378 6.41625401 23 4 C20.48807191 3.80369052 20.48807191 3.80369052 17.81640625 3.8984375 C16.9147876 3.91310059 16.01316895 3.92776367 15.08422852 3.94287109 C14.39643311 3.96172363 13.7086377 3.98057617 13 4 Z " fill="#254D90" transform="translate(37,79)"/>
<path d="M0 0 C3.76003867 -0.5721798 5.92412379 -0.64891135 9.234375 1.34765625 C10.02328125 1.93417969 10.8121875 2.52070313 11.625 3.125 C36.0171631 21.20947369 71.74998454 21.73611886 100.625 17.8125 C117.26015198 15.32413511 134.25107015 10.93659205 149.32421875 3.3203125 C152 2 152 2 154 2 C154 2.66 154 3.32 154 4 C153.071875 4.309375 153.071875 4.309375 152.125 4.625 C149.6840628 5.8611513 149.6840628 5.8611513 149.27734375 8.8984375 C148 12 148 12 145.18359375 13.6875 C136.72085281 16.65254792 128.209308 19.10454438 119.5 21.25 C118.50540771 21.49621094 117.51081543 21.74242187 116.48608398 21.99609375 C102.6159116 25.24619645 88.8896113 26.3901446 74.6875 26.3125 C73.97077118 26.31034485 73.25404236 26.3081897 72.51559448 26.30596924 C46.81469983 26.18247417 21.37301494 21.8512174 1.80078125 3.953125 C0 2 0 2 0 0 Z " fill="#25457B" transform="translate(38,133)"/>
<path d="M0 0 C12.54 0 25.08 0 38 0 C37.34 4.62 36.68 9.24 36 14 C34.35 14 32.7 14 31 14 C31.020625 13.05125 31.04125 12.1025 31.0625 11.125 C31.22551826 8.09333717 31.22551826 8.09333717 30 6 C28.10466658 5.53476937 28.10466658 5.53476937 25.9375 5.375 C24.638125 5.25125 23.33875 5.1275 22 5 C21.89816406 6.30710937 21.79632813 7.61421875 21.69140625 8.9609375 C20.92791946 16.59580543 19.3875873 24.09791858 17.9375 31.625 C17.65259819 33.12101828 17.36808997 34.61711156 17.08398438 36.11328125 C16.39385511 39.74306291 15.69841682 43.3718027 15 47 C16.32 47.33 17.64 47.66 19 48 C19 48.99 19 49.98 19 51 C12.73 51 6.46 51 0 51 C0 50.01 0 49.02 0 48 C0.79100098 47.77884521 1.58200195 47.55769043 2.39697266 47.32983398 C5.18172368 46.2496446 5.18172368 46.2496446 6.05224609 43.65649414 C6.24898926 42.68832764 6.44573242 41.72016113 6.6484375 40.72265625 C6.87756836 39.64387207 7.10669922 38.56508789 7.34277344 37.45361328 C7.5596582 36.3139209 7.77654297 35.17422852 8 34 C8.22461914 32.88737793 8.44923828 31.77475586 8.68066406 30.62841797 C9.35363006 27.23567018 9.99427805 23.83833718 10.625 20.4375 C11.05284737 18.14418718 11.48245022 15.85120097 11.9140625 13.55859375 C12.0992041 12.56142334 12.2843457 11.56425293 12.47509766 10.53686523 C13 8 13 8 14 5 C9.87775943 4.97742455 9.87775943 4.97742455 6 6 C4.10111729 8.46750418 3.01456487 11.06977646 2 14 C0.68 14 -0.64 14 -2 14 C-1.85795259 12.41632253 -1.71119847 10.83306682 -1.5625 9.25 C-1.48128906 8.36828125 -1.40007812 7.4865625 -1.31640625 6.578125 C-1 4 -1 4 0 0 Z " fill="#26467F" transform="translate(129,79)"/>
<path d="M0 0 C2 1.5625 2 1.5625 3 2.5625 C3.38189241 7.52710138 3.15313973 10.62107534 0 14.5625 C-3.61469982 17.02629304 -6.97507906 16.7666652 -11.25 16.6875 C-12.51328125 16.66945313 -13.7765625 16.65140625 -15.078125 16.6328125 C-16.04234375 16.60960938 -17.0065625 16.58640625 -18 16.5625 C-17.88601335 18.18830966 -17.75844341 19.81317157 -17.625 21.4375 C-17.55539063 22.34242187 -17.48578125 23.24734375 -17.4140625 24.1796875 C-17.20431868 26.74191903 -17.20431868 26.74191903 -15 28.5625 C-11.01403798 29.10604028 -9.2718197 28.71931906 -5.75 26.6875 C-3.03655974 24.68383595 -3.03655974 24.68383595 -1 22.5625 C-0.34 22.8925 0.32 23.2225 1 23.5625 C-0.35647402 28.00186951 -2.16808939 29.9781882 -6 32.5625 C-10.06391504 34.70140265 -13.43727493 34.96273904 -18 34.5625 C-22.0969656 32.986744 -24.96600223 31.52344302 -27 27.5625 C-28.63130492 20.15888534 -27.88054775 13.88480103 -24.125 7.25 C-18.04872091 -0.43470591 -9.51236921 -4.55801024 0 0 Z M-14 6.5625 C-15.80979141 9.67912908 -15.80979141 9.67912908 -17 12.5625 C-13.83513029 13.55717334 -12.44871324 13.76548932 -9.375 12.375 C-7.00050433 10.56288488 -5.43027745 9.18467532 -4 6.5625 C-4.21717352 4.35449472 -4.21717352 4.35449472 -5 2.5625 C-9.77187019 2.5625 -10.65941835 3.30757429 -14 6.5625 Z " fill="#244986" transform="translate(242,95.4375)"/>
<path d="M0 0 C2.125 1.375 2.125 1.375 3.625 4.0625 C4.28816607 8.4559752 3.3511567 10.56899016 1.125 14.375 C-2.94760319 17.56545087 -6.10135289 17.70510226 -11.1875 17.5625 C-13.06888672 17.52189453 -13.06888672 17.52189453 -14.98828125 17.48046875 C-15.94089844 17.44566406 -16.89351562 17.41085938 -17.875 17.375 C-17.78753716 18.81361294 -17.67934652 20.25097508 -17.5625 21.6875 C-17.47548828 22.88826172 -17.47548828 22.88826172 -17.38671875 24.11328125 C-16.77755115 26.80570906 -16.11432431 27.78064237 -13.875 29.375 C-7.36431533 29.375 -4.48473852 27.86949506 0.125 23.375 C0.9375 25.0625 0.9375 25.0625 1.125 27.375 C-2.30481771 31.63628867 -6.285541 34.84988876 -11.82421875 35.66015625 C-16.53149733 35.86637988 -19.8913003 35.06168119 -23.875 32.375 C-27.51515729 28.49216556 -27.31678937 24.22299106 -27.16015625 19.15625 C-26.45917116 12.31924472 -23.88206838 7.15953201 -18.875 2.375 C-12.82153369 -1.06742183 -6.75805439 -1.46914226 0 0 Z M-13.875 8.375 C-16.1523501 11.19009993 -16.1523501 11.19009993 -15.875 14.375 C-11.63494038 14.12558473 -9.35081154 13.73945139 -5.9375 11.125 C-3.65528728 8.56710484 -3.65528728 8.56710484 -3.5625 5.5625 C-3.665625 4.840625 -3.76875 4.11875 -3.875 3.375 C-8.965851 2.64773557 -10.64755303 4.62418325 -13.875 8.375 Z " fill="#244781" transform="translate(190.875,94.625)"/>
<path d="M0 0 C1.04687661 4.72018323 0.82568841 8.35021135 -0.07421875 13.0859375 C-0.19932327 13.74655182 -0.3244278 14.40716614 -0.45332336 15.08779907 C-0.71982012 16.47880316 -0.99157487 17.86880917 -1.26831055 19.2578125 C-1.68436623 21.35917237 -2.07660524 23.46401621 -2.46679688 25.5703125 C-5.63762091 42.1492873 -5.63762091 42.1492873 -11.875 47.4375 C-15.01070717 49.00535359 -17.52589766 49.66913311 -21 50 C-20.65481494 46.89333444 -20.44523861 45.4018007 -18.078125 43.265625 C-15.36891943 40.31197983 -14.89417849 37.8960634 -14 34 C-13.84047852 33.31808594 -13.68095703 32.63617188 -13.51660156 31.93359375 C-11.46747039 23.00209805 -9.73304769 13.99709862 -8 5 C-9.32 5.33 -10.64 5.66 -12 6 C-11.9375 4.1875 -11.9375 4.1875 -11 2 C-4.07110092 -1.7912844 -4.07110092 -1.7912844 0 0 Z " fill="#264882" transform="translate(211,95)"/>
<path d="M0 0 C2.1875 1.3125 2.1875 1.3125 3.1875 3.3125 C3.55875 2.838125 3.93 2.36375 4.3125 1.875 C6.93227242 -0.30814369 8.80094731 -0.61838668 12.1875 -0.6875 C14.5625 1.25 14.5625 1.25 16.1875 3.3125 C14.3125 8.1875 14.3125 8.1875 13.1875 9.3125 C9.46525401 9.60636153 8.40963757 9.46059171 5.1875 7.3125 C2.51830648 10.42386947 1.58853513 12.95048369 0.80078125 16.953125 C0.58486328 18.02304688 0.36894531 19.09296875 0.14648438 20.1953125 C-0.06685547 21.30648437 -0.28019531 22.41765625 -0.5 23.5625 C-0.72494141 24.68914062 -0.94988281 25.81578125 -1.18164062 26.9765625 C-1.73467303 29.75349118 -2.27790536 32.53197333 -2.8125 35.3125 C-5.4525 35.3125 -8.0925 35.3125 -10.8125 35.3125 C-10.3531054 25.0909702 -8.02960983 15.26371391 -5.8125 5.3125 C-7.1325 5.6425 -8.4525 5.9725 -9.8125 6.3125 C-9.6875 4.5 -9.6875 4.5 -8.8125 2.3125 C-5.54892933 0.08733818 -3.91073693 -0.95595792 0 0 Z " fill="#28467F" transform="translate(92.8125,94.6875)"/>
<path d="M0 0 C4.14559093 -0.11727273 8.29074862 -0.18760933 12.4375 -0.25 C14.18450195 -0.30027344 14.18450195 -0.30027344 15.96679688 -0.3515625 C23.0298007 -0.43114564 29.00072765 -0.02679327 35 4 C40.38485618 10.59644883 40.71825512 16.76400794 40 25 C39.00253749 29.14112399 37.79884573 33.13313819 36 37 C35.01 37.495 35.01 37.495 34 38 C34.30782496 36.35328588 34.62139234 34.70764424 34.9375 33.0625 C35.11152344 32.14597656 35.28554687 31.22945312 35.46484375 30.28515625 C36 28 36 28 37 27 C37.09900199 25.02287193 37.12970773 23.04209962 37.125 21.0625 C37.12757812 19.98097656 37.13015625 18.89945313 37.1328125 17.78515625 C37.19007789 15.04340337 37.19007789 15.04340337 36 13 C35.64080679 11.00448218 35.30503431 9.00451121 35 7 C34.01 7.33 33.02 7.66 32 8 C32 13.61 32 19.22 32 25 C31.67 25 31.34 25 31 25 C30.96261719 24.27554688 30.92523438 23.55109375 30.88671875 22.8046875 C30.32168328 13.69283375 30.32168328 13.69283375 25.22265625 6.38671875 C22.60731707 4.7550045 20.80732763 4.51363998 17.75 4.3125 C16.85796875 4.24675781 15.9659375 4.18101563 15.046875 4.11328125 C14.37140625 4.07589844 13.6959375 4.03851563 13 4 C12.91363281 4.72058594 12.82726563 5.44117187 12.73828125 6.18359375 C11.11715407 18.57257486 8.52116982 30.76872468 6 43 C3.7577432 39.02886507 4.06437348 36.75348064 4.875 32.25 C5.07867187 31.07953125 5.28234375 29.9090625 5.4921875 28.703125 C5.65976562 27.81109375 5.82734375 26.9190625 6 26 C6.66 26 7.32 26 8 26 C7.979375 24.700625 7.95875 23.40125 7.9375 22.0625 C7.91600546 20.70834367 7.92851801 19.35243917 8 18 C8.33 17.67 8.66 17.34 9 17 C9.26013181 15.1732966 9.45923072 13.33767093 9.625 11.5 C9.72039063 10.4996875 9.81578125 9.499375 9.9140625 8.46875 C9.94242188 7.6540625 9.97078125 6.839375 10 6 C9.67 5.67 9.34 5.34 9 5 C5.70908278 8.29091722 4.9621004 11.66402343 4.5625 16.1875 C4.09248474 21.35766786 2.62999328 26.08951709 1 31 C0.67 31 0.34 31 0 31 C0.41525044 25.86400776 0.97079756 20.8529134 2.0625 15.8125 C2.92643447 11.76160726 3.17967631 8.13255502 3 4 C2.01 3.67 1.02 3.34 0 3 C0 2.01 0 1.02 0 0 Z " fill="#27467A" transform="translate(37,79)"/>
<path d="M0 0 C2.9375 0.375 2.9375 0.375 6 1 C6.99 1 7.98 1 9 1 C10.85537388 1.12957292 12.7095346 1.2771235 14.5625 1.4375 C16.01849609 1.55931641 16.01849609 1.55931641 17.50390625 1.68359375 C20 2 20 2 22 3 C23.95774069 3.15378852 25.92017352 3.24971463 27.8828125 3.31640625 C29.04941406 3.35830078 30.21601562 3.40019531 31.41796875 3.44335938 C32.64128906 3.48267578 33.86460938 3.52199219 35.125 3.5625 C36.35605469 3.60568359 37.58710937 3.64886719 38.85546875 3.69335938 C41.90352853 3.79968704 44.9516719 3.90171781 48 4 C48.495 4.99 48.495 4.99 49 6 C46.4150611 7.29246945 44.53734 7.12949424 41.64453125 7.1328125 C40.55325928 7.13490723 39.4619873 7.13700195 38.33764648 7.13916016 C37.17434814 7.1344873 36.0110498 7.12981445 34.8125 7.125 C33.63824463 7.12161621 32.46398926 7.11823242 31.25415039 7.11474609 C11.95512463 7.00038544 11.95512463 7.00038544 6 6 C5.67 5.34 5.34 4.68 5 4 C2.6859378 3.26924352 0.35171131 2.59861742 -2 2 C-1.34 1.34 -0.68 0.68 0 0 Z " fill="#254C8E" transform="translate(76,151)"/>
<path d="M0 0 C0.495 1.485 0.495 1.485 1 3 C-0.98 4.98 -2.96 6.96 -5 9 C-2.69 9 -0.38 9 2 9 C-5.67446581 15.22828346 -14.61533652 15.42342677 -24.125 15.1875 C-25.176875 15.17396484 -26.22875 15.16042969 -27.3125 15.14648438 C-29.87555954 15.11153356 -32.43748913 15.06247682 -35 15 C-34.67 13.68 -34.34 12.36 -34 11 C-33.01 11.33 -32.02 11.66 -31 12 C-31 12.33 -31 12.66 -31 13 C-30.30132812 12.98839844 -29.60265625 12.97679688 -28.8828125 12.96484375 C-27.97273438 12.95582031 -27.06265625 12.94679688 -26.125 12.9375 C-25.22007813 12.92589844 -24.31515625 12.91429688 -23.3828125 12.90234375 C-21 13 -21 13 -19 14 C-19.515625 13.401875 -20.03125 12.80375 -20.5625 12.1875 C-21.2740625 11.1046875 -21.2740625 11.1046875 -22 10 C-21.67 9.01 -21.34 8.02 -21 7 C-20.60296875 7.50402344 -20.2059375 8.00804688 -19.796875 8.52734375 C-18.09888665 10.22465509 -18.09888665 10.22465509 -15.765625 10.06640625 C-9.47532045 8.80639183 -5.3005899 6.8398076 -1 2 C-0.67 1.34 -0.34 0.68 0 0 Z " fill="#28467A" transform="translate(63,115)"/>
<path d="M0 0 C4.34895895 4.81796433 7.04950833 8.7712591 8.8671875 15.01953125 C6.8871875 15.67953125 4.9071875 16.33953125 2.8671875 17.01953125 C0.66576176 12.91020321 -1.19870746 9.28414597 -2.1328125 4.70703125 C-2.83632132 1.08528749 -2.83632132 1.08528749 -4.8203125 -0.98046875 C-7.9639412 -2.33987575 -10.74087032 -2.04328249 -14.1328125 -1.98046875 C-14.7928125 -2.64046875 -15.4528125 -3.30046875 -16.1328125 -3.98046875 C-14.74086644 -4.23217141 -13.3438298 -4.45579565 -11.9453125 -4.66796875 C-10.77935547 -4.85939453 -10.77935547 -4.85939453 -9.58984375 -5.0546875 C-5.42414485 -4.92885558 -2.96973343 -2.75760962 0 0 Z " fill="#264B88" transform="translate(220.1328125,75.98046875)"/>
<path d="M0 0 C1.32 0.66 2.64 1.32 4 2 C4.33 7.61 4.66 13.22 5 19 C4.34 19 3.68 19 3 19 C3 18.01 3 17.02 3 16 C2.071875 15.7834375 2.071875 15.7834375 1.125 15.5625 C-1 15 -1 15 -3 14 C-4.19754817 10.40735548 -4.33094958 7.77282526 -4 4 C-2 1.5625 -2 1.5625 0 0 Z " fill="#234C8C" transform="translate(169,109)"/>
<path d="M0 0 C1.98 0 3.96 0 6 0 C6.97961897 2.93885692 7.03775226 4.05758525 6.66015625 7.01171875 C6.56669922 7.76904297 6.47324219 8.52636719 6.37695312 9.30664062 C6.27318359 10.09232422 6.16941406 10.87800781 6.0625 11.6875 C5.96259766 12.48478516 5.86269531 13.28207031 5.75976562 14.10351562 C5.51251153 16.06977435 5.25704363 18.03499706 5 20 C3.35 19.67 1.7 19.34 0 19 C-1.16843838 15.49468485 -0.89701835 13.16731228 -0.5625 9.5 C-0.13940737 4.75635906 -0.13940737 4.75635906 0 0 Z " fill="#254E8F" transform="translate(87,96)"/>
<path d="M0 0 C1.09054688 0.02320313 2.18109375 0.04640625 3.3046875 0.0703125 C4.40039062 0.08835938 5.49609375 0.10640625 6.625 0.125 C7.46804687 0.14820313 8.31109375 0.17140625 9.1796875 0.1953125 C9.1796875 1.1853125 9.1796875 2.1753125 9.1796875 3.1953125 C7.973125 3.164375 7.973125 3.164375 6.7421875 3.1328125 C4.24613865 2.89897629 4.24613865 2.89897629 3.1796875 4.1953125 C0.50909899 4.33646411 -2.14463488 4.23778357 -4.8203125 4.1953125 C-5.1503125 5.1853125 -5.4803125 6.1753125 -5.8203125 7.1953125 C-8.85204531 8.39025224 -11.84490677 8.30025205 -15.0703125 8.2578125 C-15.96234375 8.24878906 -16.854375 8.23976563 -17.7734375 8.23046875 C-18.44890625 8.21886719 -19.124375 8.20726563 -19.8203125 8.1953125 C-19.4903125 7.2053125 -19.1603125 6.2153125 -18.8203125 5.1953125 C-17.7065625 5.0715625 -16.5928125 4.9478125 -15.4453125 4.8203125 C-11.78927573 4.5487312 -11.78927573 4.5487312 -9.8203125 2.1953125 C-8.15364583 2.1953125 -6.48697917 2.1953125 -4.8203125 2.1953125 C-2.8203125 0.1953125 -2.8203125 0.1953125 0 0 Z " fill="#264B8C" transform="translate(114.8203125,58.8046875)"/>
<path d="M0 0 C6.93 0 13.86 0 21 0 C20.67 2.97 20.34 5.94 20 9 C19.01 9.495 19.01 9.495 18 10 C17.67 9.34 17.34 8.68 17 8 C16.01 8 15.02 8 14 8 C14 6.35 14 4.7 14 3 C9.38 3.33 4.76 3.66 0 4 C0 2.68 0 1.36 0 0 Z " fill="#254D8E" transform="translate(130,80)"/>
<path d="M0 0 C0.33 0 0.66 0 1 0 C1.16802051 1.45817797 1.33437143 2.9165484 1.5 4.375 C1.5928125 5.18710938 1.685625 5.99921875 1.78125 6.8359375 C2 9 2 9 2 11 C2.66 11.33 3.32 11.66 4 12 C2.70186222 14.89584583 1.46696251 16.98157613 -1 19 C-3.26171875 19.51171875 -3.26171875 19.51171875 -5.6875 19.6875 C-6.49574219 19.75324219 -7.30398437 19.81898437 -8.13671875 19.88671875 C-9.05904297 19.94279297 -9.05904297 19.94279297 -10 20 C-8.63875 18.6696875 -8.63875 18.6696875 -7.25 17.3125 C-2.90826679 12.33288182 -1.60566526 6.2809847 0 0 Z " fill="#274984" transform="translate(67,105)"/>
<path d="M0 0 C2.9375 0.9375 2.9375 0.9375 4.4375 3.25 C4.9375 5.9375 4.9375 5.9375 4.375 8.1875 C2.9375 9.9375 2.9375 9.9375 0.5 10.75 C-2.0625 10.9375 -2.0625 10.9375 -5.0625 9.9375 C-6.45681504 7.14886993 -6.31910094 5.01671132 -6.0625 1.9375 C-3.0625 -0.0625 -3.0625 -0.0625 0 0 Z " fill="#25477E" transform="translate(211.0625,76.0625)"/>
<path d="M0 0 C-0.33 0.99 -0.66 1.98 -1 3 C-1.928125 2.95875 -2.85625 2.9175 -3.8125 2.875 C-7.15809719 2.72863661 -7.15809719 2.72863661 -10 5 C-12.1875 4.625 -12.1875 4.625 -14 4 C-14.33 4.66 -14.66 5.32 -15 6 C-15.66 6.66 -16.32 7.32 -17 8 C-15.02 8 -13.04 8 -11 8 C-13.96687001 9.64826111 -16.65626525 10.44271087 -20 11 C-20 10.34 -20 9.68 -20 9 C-22.72217263 7.94625576 -24.46552445 7.7907747 -27.1953125 8.859375 C-28.74914489 9.60808631 -30.29043629 10.38352276 -31.81640625 11.1875 C-34.34865823 12.1297333 -35.5006397 11.90679739 -38 11 C-29.9248133 7.53410128 -21.84431163 4.49421467 -13.375 2.125 C-12.61783691 1.91012939 -11.86067383 1.69525879 -11.08056641 1.47387695 C-7.31308549 0.4533946 -3.90977676 -0.26271227 0 0 Z " fill="#234277" transform="translate(112,59)"/>
<path d="M0 0 C0 0.66 0 1.32 0 2 C-4.82230119 3.93800487 -9.06706808 4.18877168 -14.1875 4 C-19.87615743 3.67909394 -19.87615743 3.67909394 -25 6 C-27.6875 6.125 -27.6875 6.125 -30 6 C-30 5.34 -30 4.68 -30 4 C-29.01 4 -28.02 4 -27 4 C-27 3.34 -27 2.68 -27 2 C-25.62328125 1.92652344 -25.62328125 1.92652344 -24.21875 1.8515625 C-16.24100637 1.43865516 -16.24100637 1.43865516 -8.4375 -0.125 C-5.06452658 -0.98357505 -3.27806109 -1.02439409 0 0 Z " fill="#254D91" transform="translate(156,151)"/>
<path d="M0 0 C9.57 0 19.14 0 29 0 C29.33 1.32 29.66 2.64 30 4 C23.565 4.495 23.565 4.495 17 5 C17 4.01 17 3.02 17 2 C11.06 2 5.12 2 -1 2 C-0.67 1.34 -0.34 0.68 0 0 Z " fill="#244C91" transform="translate(143,57)"/>
<path d="M0 0 C1.75070517 0.11470137 3.50057536 0.24219028 5.25 0.375 C6.22453125 0.44460937 7.1990625 0.51421875 8.203125 0.5859375 C10.89633189 0.98465249 12.66963279 1.63507063 15 3 C12.69 2.67 10.38 2.34 8 2 C8 2.66 8 3.32 8 4 C8.66 4.33 9.32 4.66 10 5 C10 5.66 10 6.32 10 7 C2.98475852 6.44210432 -4.00982196 5.81552077 -11 5 C-11 4.67 -11 4.34 -11 4 C-7.04 4 -3.08 4 1 4 C0.67 2.68 0.34 1.36 0 0 Z " fill="#264882" transform="translate(172,57)"/>
<path d="M0 0 C0.99 0.33 1.98 0.66 3 1 C1.64352598 5.43936951 -0.16808939 7.4156882 -4 10 C-8.05636393 12.13492839 -11.45572879 12.17820671 -16 12 C-16 11.67 -16 11.34 -16 11 C-14.35 11 -12.7 11 -11 11 C-11 10.01 -11 9.02 -11 8 C-11.66 7.67 -12.32 7.34 -13 7 C-11.783125 6.773125 -10.56625 6.54625 -9.3125 6.3125 C-5.04439716 5.27390304 -2.84971116 3.384032 0 0 Z " fill="#27477F" transform="translate(240,118)"/>
<path d="M0 0 C1.65 0.33 3.3 0.66 5 1 C5.66 3.97 6.32 6.94 7 10 C3.37 10 -0.26 10 -4 10 C-3 7 -3 7 -1 5 C-0.35232207 2.42938689 -0.35232207 2.42938689 0 0 Z " fill="#204C8E" transform="translate(138,119)"/>
<path d="M0 0 C2.375 0.1875 2.375 0.1875 5 1 C6.3125 3.5625 6.3125 3.5625 7 6 C5.875 7.5625 5.875 7.5625 4 9 C0.8125 8.6875 0.8125 8.6875 -2 8 C-2.6875 6.25 -2.6875 6.25 -3 4 C-1.5625 1.75 -1.5625 1.75 0 0 Z " fill="#274476" transform="translate(110,121)"/>
<path d="M0 0 C2.97 0.495 2.97 0.495 6 1 C6 1.66 6 2.32 6 3 C6.99 3.33 7.98 3.66 9 4 C8.01 5.485 8.01 5.485 7 7 C6.85754103 9.76655324 6.81230555 12.42653306 6.875 15.1875 C6.88853516 16.31188477 6.88853516 16.31188477 6.90234375 17.45898438 C6.92587422 19.30612654 6.96174439 21.15310412 7 23 C6.67 23 6.34 23 6 23 C5.94392578 21.91332031 5.94392578 21.91332031 5.88671875 20.8046875 C5.4374981 14.19850143 4.88992603 8.88992603 0 4 C0 2.68 0 1.36 0 0 Z " fill="#254682" transform="translate(62,81)"/>
<path d="M0 0 C8.58 0 17.16 0 26 0 C26.33 0.66 26.66 1.32 27 2 C26.34 2 25.68 2 25 2 C25 2.99 25 3.98 25 5 C21.04 4.67 17.08 4.34 13 4 C14.32 3.67 15.64 3.34 17 3 C17 2.34 17 1.68 17 1 C12.05 1 7.1 1 2 1 C2 1.66 2 2.32 2 3 C1.34 3 0.68 3 0 3 C0 2.01 0 1.02 0 0 Z " fill="#244071" transform="translate(37,79)"/>
<path d="M0 0 C1.32 0.33 2.64 0.66 4 1 C3.67 5.29 3.34 9.58 3 14 C1.68 14 0.36 14 -1 14 C-1.22226864 12.23086176 -1.42733873 10.45955629 -1.625 8.6875 C-1.74101563 7.70136719 -1.85703125 6.71523437 -1.9765625 5.69921875 C-2 3 -2 3 0 0 Z " fill="#254B8D" transform="translate(87,116)"/>
<path d="M0 0 C5.49471751 -0.32321868 9.46054055 -0.5464527 14 3 C15 4 15 4 15.1875 7.4375 C15 11 15 11 13 13 C12.67 10.03 12.34 7.06 12 4 C9.0745356 3.7763932 9.0745356 3.7763932 7 5 C1.27272727 2.54545455 1.27272727 2.54545455 0 0 Z " fill="#203F77" transform="translate(230,94)"/>
<path d="M0 0 C1.49697302 5.68849748 0.3348044 10.41809068 -1 16 C-1.33 16 -1.66 16 -2 16 C-2 13.69 -2 11.38 -2 9 C-2.66 9 -3.32 9 -4 9 C-4 5 -4 5 -2 3 C-2.804375 2.87625 -3.60875 2.7525 -4.4375 2.625 C-5.283125 2.41875 -6.12875 2.2125 -7 2 C-7.33 1.34 -7.66 0.68 -8 0 C-4.94736336 -0.98120464 -3.05263664 -0.98120464 0 0 Z " fill="#284880" transform="translate(211,95)"/>
<path d="M0 0 C6.625 -0.125 6.625 -0.125 10 1 C10 4.63 10 8.26 10 12 C9.01 12 8.02 12 7 12 C7.33 9.36 7.66 6.72 8 4 C5.36 3.67 2.72 3.34 0 3 C0 2.01 0 1.02 0 0 Z " fill="#244D92" transform="translate(154,80)"/>
<path d="M0 0 C0 0.66 0 1.32 0 2 C-0.61875 2.20625 -1.2375 2.4125 -1.875 2.625 C-4.32207838 3.85417298 -4.32207838 3.85417298 -4.625 6.875 C-6.2864805 10.65109206 -7.23381491 10.89921111 -10.9375 12.4375 C-15.52216066 14.15927978 -15.52216066 14.15927978 -19 13 C-17 11 -17 11 -14.375 10.875 C-13.59125 10.91625 -12.8075 10.9575 -12 11 C-11.67 10.01 -11.34 9.02 -11 8 C-9.68 8.33 -8.36 8.66 -7 9 C-8.63473516 5.87525373 -8.63473516 5.87525373 -11.125 5.3125 C-11.74375 5.209375 -12.3625 5.10625 -13 5 C-11.21046815 4.16209211 -9.41830305 3.32980604 -7.625 2.5 C-6.62726563 2.0359375 -5.62953125 1.571875 -4.6015625 1.09375 C-2 0 -2 0 0 0 Z " fill="#2D4471" transform="translate(192,135)"/>
<path d="M0 0 C0.66 0 1.32 0 2 0 C2 1.65 2 3.3 2 5 C1.01 5.495 1.01 5.495 0 6 C0 7.32 0 8.64 0 10 C-3.3 10 -6.6 10 -10 10 C-9 8 -9 8 -6.6875 6.6875 C-3.72371705 4.82652001 -2.14081233 2.73138124 0 0 Z " fill="#214C8F" transform="translate(240,101)"/>
<path d="M0 0 C2.31 0.66 4.62 1.32 7 2 C6.67 2.66 6.34 3.32 6 4 C5.34 4 4.68 4 4 4 C4 8.95 4 13.9 4 19 C1.30576713 14.95865069 0.88151041 13.19010472 0.9375 8.375 C0.94652344 7.37210937 0.95554688 6.36921875 0.96484375 5.3359375 C0.98224609 4.17964844 0.98224609 4.17964844 1 3 C0.34 2.67 -0.32 2.34 -1 2 C-0.67 1.34 -0.34 0.68 0 0 Z " fill="#204E8F" transform="translate(203,96)"/>
<path d="M0 0 C0.33 0 0.66 0 1 0 C1 1.65 1 3.3 1 5 C1.66 5.33 2.32 5.66 3 6 C2.34 6 1.68 6 1 6 C-0.26120854 9.78362561 0.74517428 11.31394946 2 15 C1.67 15.66 1.34 16.32 1 17 C0.01 16.67 -0.98 16.34 -2 16 C-3.53995173 12.92009655 -3.22377524 10.41257239 -3 7 C-2.17748648 4.53245943 -1.14878622 2.34543853 0 0 Z " fill="#284E93" transform="translate(202,118)"/>
<path d="M0 0 C0.33 0.99 0.66 1.98 1 3 C0.01 4.485 0.01 4.485 -1 6 C2.63 6 6.26 6 10 6 C9.67 5.01 9.34 4.02 9 3 C10.32 3.33 11.64 3.66 13 4 C13 4.99 13 5.98 13 7 C6.73 7 0.46 7 -6 7 C-6 6.01 -6 5.02 -6 4 C-4.7934375 3.566875 -4.7934375 3.566875 -3.5625 3.125 C-0.8673532 2.26737432 -0.8673532 2.26737432 0 0 Z " fill="#244071" transform="translate(135,123)"/>
<path d="M0 0 C2.6875 0.875 2.6875 0.875 5 2 C5 3.65 5 5.3 5 7 C5.99 7.33 6.98 7.66 8 8 C7.54625 8.474375 7.0925 8.94875 6.625 9.4375 C4.3298066 13.05684343 3.75865335 16.8229439 3 21 C2.67 21 2.34 21 2 21 C1.88748267 14.92406438 2.30739642 9.03554548 3 3 C0.03 2.505 0.03 2.505 -3 2 C-2.01 1.34 -1.02 0.68 0 0 Z " fill="#2A4279" transform="translate(90,94)"/>
<path d="M0 0 C2.6875 2.9375 2.6875 2.9375 2.6875 4.9375 C2.0275 4.9375 1.3675 4.9375 0.6875 4.9375 C0.3575 4.2775 0.0275 3.6175 -0.3125 2.9375 C-1.3025 4.4225 -1.3025 4.4225 -2.3125 5.9375 C-2.745625 4.82375 -3.17875 3.71 -3.625 2.5625 C-5.01161119 -1.23762334 -5.01161119 -1.23762334 -8.3125 -3.0625 C-9.488125 -3.0625 -10.66375 -3.0625 -11.875 -3.0625 C-13.009375 -3.0625 -14.14375 -3.0625 -15.3125 -3.0625 C-15.9725 -3.7225 -16.6325 -4.3825 -17.3125 -5.0625 C-9.3325118 -6.5055044 -5.92083856 -5.61791194 0 0 Z " fill="#2A3D64" transform="translate(221.3125,77.0625)"/>
<path d="M0 0 C2.375 0.25 2.375 0.25 5 1 C5.69937532 2.31647119 6.36729133 3.65022151 7 5 C9.05000871 5.80528889 9.05000871 5.80528889 11 6 C10.34 6.66 9.68 7.32 9 8 C6.0625 7.9375 6.0625 7.9375 3 7 C1.14766715 4.59196729 0 3.07258075 0 0 Z " fill="#234B8A" transform="translate(42,135)"/>
<path d="M0 0 C2.97 0.33 5.94 0.66 9 1 C9 1.66 9 2.32 9 3 C10.32 3.33 11.64 3.66 13 4 C10.65887549 5.44977894 9.4203071 6.04314411 6.640625 5.7578125 C5.45726562 5.44457031 5.45726562 5.44457031 4.25 5.125 C3.05117187 4.81949219 3.05117187 4.81949219 1.828125 4.5078125 C1.22484375 4.34023438 0.6215625 4.17265625 0 4 C0 2.68 0 1.36 0 0 Z " fill="#284D8D" transform="translate(180,59)"/>
<path d="M0 0 C0.66 0.33 1.32 0.66 2 1 C1.67 1.66 1.34 2.32 1 3 C2.65 3 4.3 3 6 3 C6 2.34 6 1.68 6 1 C7.98 1 9.96 1 12 1 C8.86028691 3.6566803 6.03027365 5.1133398 2 6 C-1.375 5.125 -1.375 5.125 -4 4 C-4 3.34 -4 2.68 -4 2 C-2.125 0.9375 -2.125 0.9375 0 0 Z " fill="#2A4279" transform="translate(68,73)"/>
<path d="M0 0 C0.33 0.99 0.66 1.98 1 3 C-1.36292656 5.52588702 -2.66462511 6.88820837 -6 8 C-3.69 8.33 -1.38 8.66 1 9 C1 9.33 1 9.66 1 10 C-3.62 10 -8.24 10 -13 10 C-13.33 11.32 -13.66 12.64 -14 14 C-14 12.35 -14 10.7 -14 9 C-13.32453125 8.76925781 -12.6490625 8.53851563 -11.953125 8.30078125 C-6.67604499 6.3714442 -3.05250408 4.99500668 0 0 Z " fill="#1F3C6D" transform="translate(237,102)"/>
<path d="M0 0 C0.99 0 1.98 0 3 0 C4.125 3.75 4.125 3.75 3 6 C-0.795878 7.5183512 -4.9877022 7.06687163 -9 7 C-6 5 -6 5 -3.9375 4.0625 C-1.67738896 3.01748702 -1.67738896 3.01748702 0 0 Z " fill="#254D8F" transform="translate(187,104)"/>
<path d="M0 0 C0.33 0 0.66 0 1 0 C3.29612756 9.41002278 3.29612756 9.41002278 3 14 C1.68 14.33 0.36 14.66 -1 15 C-2.19126781 11.42619658 -1.7349445 9.49116698 -1.0625 5.8125 C-0.86785156 4.72582031 -0.67320312 3.63914063 -0.47265625 2.51953125 C-0.31667969 1.68808594 -0.16070312 0.85664062 0 0 Z " fill="#254886" transform="translate(198,125)"/>
<path d="M0 0 C1.98 0 3.96 0 6 0 C6 2.64 6 5.28 6 8 C4.125 7.75 4.125 7.75 2 7 C0.27898465 4.41847698 0 3.15081975 0 0 Z " fill="#294C93" transform="translate(216,119)"/>
<path d="M0 0 C0.99 0.33 1.98 0.66 3 1 C1.82744291 4.33727786 0.81131596 6.77437487 -2 9 C-2.66 9 -3.32 9 -4 9 C-4 8.34 -4 7.68 -4 7 C-4.99 6.67 -5.98 6.34 -7 6 C-6.030625 5.38125 -5.06125 4.7625 -4.0625 4.125 C-0.97164638 2.34321154 -0.97164638 2.34321154 0 0 Z " fill="#2A4275" transform="translate(240,118)"/>
<path d="M0 0 C1.98 0 3.96 0 6 0 C5.4740625 0.928125 5.4740625 0.928125 4.9375 1.875 C4.628125 2.57625 4.31875 3.2775 4 4 C4.33 4.66 4.66 5.32 5 6 C-0.28 5.67 -5.56 5.34 -11 5 C-11 4.67 -11 4.34 -11 4 C-7.04 4 -3.08 4 1 4 C0.67 2.68 0.34 1.36 0 0 Z " fill="#214171" transform="translate(172,57)"/>
<path d="M0 0 C0.66 0 1.32 0 2 0 C3.04976964 3.14930893 3.10131595 5.38814456 3.0625 8.6875 C3.05347656 9.68136719 3.04445312 10.67523438 3.03515625 11.69921875 C3.02355469 12.45847656 3.01195312 13.21773437 3 14 C2.34 14 1.68 14 1 14 C1.33 10.7 1.66 7.4 2 4 C0.68 4.33 -0.64 4.66 -2 5 C-1.125 1.125 -1.125 1.125 0 0 Z " fill="#294575" transform="translate(201,96)"/>
<path d="M0 0 C4.92127034 -0.16682272 8.50343896 -0.24828052 13 2 C12.67 2.66 12.34 3.32 12 4 C11.01 4 10.02 4 9 4 C8.67 5.65 8.34 7.3 8 9 C7.67 9 7.34 9 7 9 C7 7.35 7 5.7 7 4 C5.35 4 3.7 4 2 4 C2 3.67 2 3.34 2 3 C3.65 3 5.3 3 7 3 C7 2.34 7 1.68 7 1 C4.69 1 2.38 1 0 1 C0 0.67 0 0.34 0 0 Z " fill="#1E3F73" transform="translate(180,94)"/>
<path d="M0 0 C0.99 0 1.98 0 3 0 C3 0.99 3 1.98 3 3 C4.423125 2.9690625 4.423125 2.9690625 5.875 2.9375 C9 3 9 3 11 4 C11 4.99 11 5.98 11 7 C10.34 7 9.68 7 9 7 C8.67 6.34 8.34 5.68 8 5 C6.10466658 4.53476937 6.10466658 4.53476937 3.9375 4.375 C2.638125 4.25125 1.33875 4.1275 0 4 C-0.33 5.32 -0.66 6.64 -1 8 C-1.125 2.25 -1.125 2.25 0 0 Z " fill="#264279" transform="translate(151,80)"/>
<path d="M0 0 C0.33 0 0.66 0 1 0 C1.66 3.3 2.32 6.6 3 10 C2.34 10 1.68 10 1 10 C1.66 12.31 2.32 14.62 3 17 C0.12231001 14.9981287 -0.05483458 13.72125753 -0.75 10.1875 C-1.08424116 6.64192217 -0.78497931 3.48879694 0 0 Z " fill="#274273" transform="translate(215,109)"/>
<path d="M0 0 C1.50433594 0.01353516 1.50433594 0.01353516 3.0390625 0.02734375 C3.80992187 0.03894531 4.58078125 0.05054687 5.375 0.0625 C5.375 0.7225 5.375 1.3825 5.375 2.0625 C3.725 2.0625 2.075 2.0625 0.375 2.0625 C0.045 3.0525 -0.285 4.0425 -0.625 5.0625 C-0.955 3.7425 -1.285 2.4225 -1.625 1.0625 C-3.605 2.0525 -3.605 2.0525 -5.625 3.0625 C-6.285 2.4025 -6.945 1.7425 -7.625 1.0625 C-4.98041621 -0.25979189 -2.94738699 -0.03427194 0 0 Z " fill="#234482" transform="translate(181.625,94.9375)"/>
<path d="M0 0 C3.0916909 2.52956528 3.90931332 5.22454612 5 9 C3.02 9.66 1.04 10.32 -1 11 C-1.33 9.68 -1.66 8.36 -2 7 C-1.67 7.66 -1.34 8.32 -1 9 C-0.01 9 0.98 9 2 9 C1.67 7.88625 1.34 6.7725 1 5.625 C0 2 0 2 0 0 Z " fill="#284174" transform="translate(224,82)"/>
<path d="M0 0 C2.64 0.33 5.28 0.66 8 1 C8 1.99 8 2.98 8 4 C5.69 4 3.38 4 1 4 C0.67 2.68 0.34 1.36 0 0 Z " fill="#214E8E" transform="translate(63,147)"/>
<path d="M0 0 C-0.99 1.485 -0.99 1.485 -2 3 C-4.97 2.67 -7.94 2.34 -11 2 C-8.74490247 -2.51019507 -4.15738698 -0.70597137 0 0 Z " fill="#294C8F" transform="translate(94,67)"/>
<path d="M0 0 C8.57142857 0.85714286 8.57142857 0.85714286 12 3 C11.34 3.66 10.68 4.32 10 5 C8.25 4.75 8.25 4.75 6 4 C4.9275 3.649375 3.855 3.29875 2.75 2.9375 C1.8425 2.628125 0.935 2.31875 0 2 C0 1.34 0 0.68 0 0 Z " fill="#254D94" transform="translate(192,64)"/>
<path d="M0 0 C0.66 0 1.32 0 2 0 C2 1.32 2 2.64 2 4 C2.66 4.33 3.32 4.66 4 5 C3.01 5.66 2.02 6.32 1 7 C0.74969023 9.58380177 0.74969023 9.58380177 1 12 C0.01 12.495 0.01 12.495 -1 13 C-1.07654536 8.48382401 -1.10228696 4.40914783 0 0 Z " fill="#284780" transform="translate(137,113)"/>
<path d="M0 0 C0.66 0.33 1.32 0.66 2 1 C2.625 3.0625 2.625 3.0625 3 5 C1.02 5.33 -0.96 5.66 -3 6 C-3.33 4.68 -3.66 3.36 -4 2 C-2.125 0.9375 -2.125 0.9375 0 0 Z " fill="#204D90" transform="translate(38,123)"/>
<path d="M0 0 C0.33 0 0.66 0 1 0 C1.19658808 1.41543415 1.38187546 2.83244031 1.5625 4.25 C1.66691406 5.03890625 1.77132812 5.8278125 1.87890625 6.640625 C2.00027349 9.00532874 1.69633257 10.7511037 1 13 C0.34 13 -0.32 13 -1 13 C-1.33 13.66 -1.66 14.32 -2 15 C-1.03644647 4.44191344 -1.03644647 4.44191344 0 0 Z " fill="#2C487F" transform="translate(140,97)"/>
<path d="M0 0 C0.33 1.98 0.66 3.96 1 6 C0.608125 5.525625 0.21625 5.05125 -0.1875 4.5625 C-2.40908173 2.64734334 -4.16036935 2.52308986 -7 2 C-7.33 1.34 -7.66 0.68 -8 0 C-4.94736336 -0.98120464 -3.05263664 -0.98120464 0 0 Z " fill="#263E71" transform="translate(211,95)"/>
<path d="M0 0 C0.33 0.66 0.66 1.32 1 2 C1.61875 1.79375 2.2375 1.5875 2.875 1.375 C3.57625 1.25125 4.2775 1.1275 5 1 C7 3 7 3 7.125 5.625 C7.08375 6.40875 7.0425 7.1925 7 8 C6.67 7.01 6.34 6.02 6 5 C3.69 5 1.38 5 -1 5 C-0.67 3.35 -0.34 1.7 0 0 Z " fill="#23437F" transform="translate(143,86)"/>
<path d="M0 0 C0 0.66 0 1.32 0 2 C-2.70879335 3.35439668 -5.00933268 3.06501451 -8 3 C-7.67 2.01 -7.34 1.02 -7 0 C-4.3333581 -1.33332095 -2.83319697 -0.67102033 0 0 Z " fill="#254D91" transform="translate(103,64)"/>
<path d="M0 0 C5.53846154 0.61538462 5.53846154 0.61538462 7.875 2.5625 C8.431875 3.2740625 8.431875 3.2740625 9 4 C5.23375329 5.25541557 3.62811066 4.37061958 0 3 C0 2.01 0 1.02 0 0 Z " fill="#264D92" transform="translate(53,143)"/>
<path d="M0 0 C0.99 1.32 1.98 2.64 3 4 C1.35 5.65 -0.3 7.3 -2 9 C-1.125 1.125 -1.125 1.125 0 0 Z " fill="#2B3C6A" transform="translate(211,122)"/>
<path d="M0 0 C0 1.98 0 3.96 0 6 C-0.33 5.34 -0.66 4.68 -1 4 C-2.32 4.33 -3.64 4.66 -5 5 C-5 3.68 -5 2.36 -5 1 C-3 0 -3 0 0 0 Z " fill="#274C95" transform="translate(225,100)"/>
<path d="M0 0 C0.66 0.33 1.32 0.66 2 1 C1.43628586 4.26954202 0.50037734 5.82575883 -2 8 C-2.6875 5.6875 -2.6875 5.6875 -3 3 C-1.5625 1.1875 -1.5625 1.1875 0 0 Z " fill="#254375" transform="translate(190,118)"/>
<path d="M0 0 C1.98 0.66 3.96 1.32 6 2 C6 2.99 6 3.98 6 5 C4.35 4.67 2.7 4.34 1 4 C0.67 2.68 0.34 1.36 0 0 Z " fill="#2A4785" transform="translate(166,123)"/>
<path d="M0 0 C0.99 0.33 1.98 0.66 3 1 C3 1.33 3 1.66 3 2 C5.97 2.495 5.97 2.495 9 3 C9 3.33 9 3.66 9 4 C5.7 4 2.4 4 -1 4 C-0.67 2.68 -0.34 1.36 0 0 Z " fill="#254070" transform="translate(29,126)"/>
<path d="M0 0 C0.66 0 1.32 0 2 0 C2 2.31 2 4.62 2 7 C1.01 7 0.02 7 -1 7 C-0.67 4.69 -0.34 2.38 0 0 Z " fill="#2C498B" transform="translate(162,85)"/>
<path d="M0 0 C2.62187494 1.04874998 3.79371361 1.64931313 5.25 4.125 C5.4975 4.74375 5.745 5.3625 6 6 C5.34 6 4.68 6 4 6 C3.67 5.34 3.34 4.68 3 4 C2.34 4.99 1.68 5.98 1 7 C0.67 4.69 0.34 2.38 0 0 Z " fill="#244373" transform="translate(218,76)"/>
<path d="M0 0 C0 0.99 0 1.98 0 3 C-1.65 3.66 -3.3 4.32 -5 5 C-5 3.68 -5 2.36 -5 1 C-3.35 0.67 -1.7 0.34 0 0 Z " fill="#2D4785" transform="translate(195,140)"/>
<path d="M0 0 C3 1 3 1 5 3 C2.36 3.33 -0.28 3.66 -3 4 C-2.01 2.68 -1.02 1.36 0 0 Z " fill="#2A4C91" transform="translate(60,121)"/>
<path d="M0 0 C0.33 0 0.66 0 1 0 C1.25 2.3125 1.25 2.3125 1 5 C-1 6.8125 -1 6.8125 -3 8 C-2.45276317 4.62537285 -1.9451 2.91765 0 0 Z " fill="#2B4479" transform="translate(219,101)"/>
<path d="M0 0 C2.0625 0.4375 2.0625 0.4375 4 1 C2.02 2.32 0.04 3.64 -2 5 C-1.125 1.125 -1.125 1.125 0 0 Z " fill="#33476E" transform="translate(54,86)"/>
</svg>
